<?xml version="1.0" standalone="no"?>
<!DOCTYPE svg PUBLIC "-//W3C//DTD SVG 20010904//EN"
 "http://www.w3.org/TR/2001/REC-SVG-20010904/DTD/svg10.dtd">
<svg version="1.0" xmlns="http://www.w3.org/2000/svg"
 width="225.000000pt" height="225.000000pt" viewBox="0 0 225.000000 225.000000"
 preserveAspectRatio="xMidYMid meet">
<metadata>
Created by potrace 1.14, written by Peter Selinger 2001-2017
</metadata>
<g transform="translate(0.000000,225.000000) scale(0.100000,-0.100000)"
fill="#000000" stroke="none">
<path d="M0 1125 l0 -1125 1125 0 1125 0 0 1125 0 1125 -1125 0 -1125 0 0
-1125z m1620 130 c0 -31 3 -35 25 -35 26 0 29 -9 19 -47 -4 -16 -14 -23 -30
-23 -27 0 -30 -4 -39 -74 l-7 -49 32 5 c29 4 31 3 25 -21 -8 -35 -32 -51 -76
-51 -57 0 -72 21 -64 89 3 31 9 66 12 79 4 16 1 22 -12 22 -13 0 -16 6 -11 23
3 12 6 28 6 35 0 6 6 12 14 12 8 0 18 9 21 21 6 18 53 47 78 49 4 0 7 -16 7
-35z m-168 -51 c19 -17 20 -26 14 -100 -10 -137 -11 -140 -56 -136 -29 3 -37
8 -33 19 4 10 -3 9 -28 -6 -41 -25 -67 -26 -97 -5 -22 15 -30 62 -16 99 10 25
58 45 108 45 51 0 64 11 40 35 -16 16 -30 16 -87 -1 -17 -5 -22 1 -30 41 -3
15 74 35 121 31 24 -2 52 -12 64 -22z m-882 -12 c0 -15 -21 -48 -56 -85 l-56
-62 46 -3 c47 -3 50 -7 37 -50 -6 -23 -10 -24 -106 -24 -94 0 -100 2 -103 21
-2 14 14 40 52 79 31 33 56 62 56 65 0 4 -18 7 -40 7 -42 0 -47 8 -34 55 5 18
13 20 105 20 97 0 99 0 99 -23z m211 -1 c25 -25 29 -37 29 -82 0 -89 -54 -149
-135 -149 -47 0 -71 14 -90 50 -65 125 99 277 196 181z m150 17 c1 -7 0 -23
-1 -35 -1 -20 2 -19 33 12 46 46 94 49 109 7 l11 -28 28 28 c31 32 79 37 100
12 10 -13 11 -31 0 -102 -19 -136 -17 -132 -63 -132 l-41 0 7 63 c4 34 10 72
13 85 7 30 -22 30 -42 -2 -12 -17 -34 -110 -35 -143 0 -2 -21 -3 -46 -3 -43 0
-46 2 -41 23 13 52 19 147 10 147 -23 0 -45 -42 -55 -104 l-11 -66 -45 0 -45
0 7 38 c3 20 11 74 17 119 11 77 13 82 38 86 48 7 51 7 52 -5z m953 -19 c20
-23 26 -42 26 -76 0 -92 -55 -153 -138 -153 -63 0 -102 40 -102 105 0 96 54
155 142 155 39 0 50 -4 72 -31z"/>
<path d="M1306 1064 c-9 -8 -16 -19 -16 -23 0 -13 24 -31 41 -31 17 0 59 44
59 61 0 15 -68 10 -84 -7z"/>
<path d="M671 1131 c-17 -31 -14 -91 5 -98 25 -9 45 26 42 72 -3 45 -29 60
-47 26z"/>
<path d="M1773 1138 c-11 -13 -18 -55 -15 -90 3 -29 41 -22 53 9 22 58 -7 119
-38 81z"/>
</g>
</svg>
